<svg width="200" height="193" viewBox="0 0 200 193" fill="none" xmlns="http://www.w3.org/2000/svg">
<g clip-path="url(#clip0_1_335)">
<path d="M135.311 125.383C109.647 125.383 88.7718 104.485 88.7718 78.8034C88.7718 66.2737 93.7463 54.8922 101.817 46.5139C98.0296 46.2482 84.2831 46.0527 75.8469 56.1406C65.9879 67.9233 79.7243 78.2118 70.6419 91.0674C70.6419 91.0674 78.9629 89.097 78.7525 80.6235C78.5471 72.145 78.0411 67.0759 80.581 67.0057C88.5714 66.7801 86.2569 94.527 71.0276 98.7036C55.7983 102.88 55.2472 121.682 55.2472 121.682C55.2472 121.682 58.1929 108.556 67.621 107.704C75.0253 107.032 77.1444 109.233 77.1744 113.088C77.1995 116.518 69.3644 144.586 39.7975 144.104C33.1547 143.784 27.7794 137.301 16.0418 143.302C16.0418 143.302 31.4063 144.104 28.7512 148.366C26.0911 152.623 10.9469 147.454 8.28683 137.972C6.11264 130.216 8.05638 121.843 9.75465 118.729C9.27373 116.593 8.85793 114.437 8.59743 113.018C5.49145 118.544 -8.81109 146.411 8.12652 160.791C20.7258 171.49 37.969 166.707 48.379 162.315C58.789 157.923 76.2877 149.675 79.7193 151.921C83.1509 154.172 77.5051 163.493 60.337 164.937C43.169 166.381 33.4002 178.916 33.4002 178.916C33.4002 178.916 45.6087 166.812 62.5563 167.991C79.4989 169.169 96.0007 162.205 97.3332 153.636C98.6608 145.067 113.059 135.105 120.813 137.14C128.563 139.176 116.716 150.638 109.186 150.101C109.186 150.101 120.413 151.936 129.009 143.297C135.958 136.318 134.284 129.038 143.587 124.641C140.902 125.127 138.142 125.393 135.316 125.393L135.311 125.383Z" fill="#DBA527"/>
<path d="M135.311 122.169C159.202 122.169 178.64 102.715 178.64 78.8034C178.64 54.8922 159.202 35.4382 135.311 35.4382C111.42 35.4382 91.9829 54.8922 91.9829 78.8034C91.9829 102.715 111.42 122.169 135.311 122.169ZM175.839 78.7984C175.839 87.5527 173.044 95.6602 168.315 102.299H158.07C155.706 102.299 153.481 101.175 152.074 99.2752L148.056 93.8451C146.623 91.9048 146.212 89.3878 146.959 87.0964L149.694 78.6681C150.4 76.497 152.059 74.7673 154.198 73.9751L160.46 71.6536C162.799 70.7862 165.419 71.1472 167.438 72.6163L175.834 78.7232C175.834 78.7533 175.834 78.7784 175.834 78.8034L175.839 78.7984ZM136.714 52.2849C136.714 49.8933 137.856 47.6471 139.79 46.2432L147.991 40.2817C156.041 42.944 162.985 48.0582 167.924 54.7468L164.923 63.9824C164.217 66.1534 162.559 67.8832 160.42 68.6754L153.737 71.1522C151.397 72.0196 148.777 71.6586 146.758 70.1896L139.785 65.1205C137.851 63.7166 136.709 61.4704 136.709 59.0788V52.2799L136.714 52.2849ZM139.76 92.4212C142.124 92.4212 144.349 93.5443 145.756 95.4446L149.739 100.83C151.177 102.77 151.583 105.287 150.836 107.578L147.635 117.436C143.748 118.679 139.605 119.361 135.306 119.361C131.008 119.361 126.945 118.699 123.088 117.471L119.897 107.638C119.16 105.362 119.556 102.87 120.959 100.935L124.921 95.4847C126.324 93.5543 128.568 92.4112 130.953 92.4112H139.755L139.76 92.4212ZM122.637 40.2817L130.838 46.2432C132.771 47.6471 133.914 49.8933 133.914 52.2849V59.0838C133.914 61.4754 132.771 63.7216 130.838 65.1255L123.759 70.2748C121.755 71.7338 119.16 72.0999 116.831 71.2525L110.509 68.9612C108.344 68.179 106.666 66.4392 105.955 64.2481L102.819 54.5863C107.748 47.973 114.652 42.924 122.637 40.2817ZM94.7883 79.019L103.31 72.8219C105.314 71.3628 107.909 70.9968 110.238 71.8441L116.415 74.0854C118.579 74.8675 120.257 76.6074 120.969 78.7984L123.694 87.1917C124.43 89.468 124.035 91.9599 122.632 93.8953L118.8 99.1649C117.397 101.095 115.153 102.238 112.768 102.238H102.258C97.5987 95.6702 94.8334 87.668 94.7883 79.0291V79.019Z" fill="#00204F"/>
<path d="M103.58 0C50.4179 0 7.16467 43.29 7.16467 96.4975C7.16467 111.84 10.7666 126.355 17.1639 139.251C18.2009 138.835 19.2279 138.489 20.2398 138.228C13.9327 125.663 10.3758 111.489 10.3758 96.4975C10.3758 45.0599 52.1863 3.21391 103.58 3.21391C154.974 3.21391 196.785 45.0599 196.785 96.4975C196.785 147.935 154.974 189.781 103.58 189.781C83.6669 189.781 65.1964 183.494 50.0322 172.809C48.7748 173.225 47.5825 173.691 46.4603 174.193C62.4611 186.006 82.2141 193 103.58 193C156.743 193 199.996 149.71 199.996 96.5025C199.996 43.295 156.748 0 103.58 0Z" fill="#00204F"/>
<path d="M103.58 4.82337C52.9929 4.82337 11.9839 45.8671 11.9839 96.4975C11.9839 111.389 15.5358 125.448 21.8279 137.877C23.0452 137.657 24.2526 137.536 25.4549 137.536C29.2071 137.536 32.2029 138.604 34.848 139.547C36.7216 140.214 38.3397 140.79 39.9077 140.881C40.1231 140.881 40.3385 140.881 40.5489 140.881C45.7189 140.881 50.4079 139.933 54.606 138.073C45.0977 126.862 39.3566 112.351 39.3566 96.4975C39.3566 60.9991 68.112 32.2193 103.58 32.2193C109.542 32.2193 115.308 33.0366 120.783 34.5558C125.357 33.0466 130.237 32.2193 135.311 32.2193C160.976 32.2193 181.851 53.1172 181.851 78.7984C181.851 93.068 175.404 105.848 165.279 114.397C164.963 115.49 164.608 116.568 164.237 117.636L163.906 118.564C154.909 143.192 131.304 160.771 103.585 160.771C101.491 160.771 99.4223 160.665 97.3783 160.47C95.3244 162.846 92.3486 164.987 88.5564 166.752C82.2242 169.7 74.334 171.32 66.3386 171.32C65.001 171.32 63.6584 171.275 62.3359 171.18C61.6395 171.129 60.9332 171.104 60.2318 171.104C57.2912 171.104 54.5158 171.541 51.9609 172.227C66.6592 182.285 84.4334 188.167 103.585 188.167C154.173 188.167 195.187 147.123 195.187 96.4875C195.187 45.8521 154.173 4.82337 103.58 4.82337Z" fill="#00204F"/>
<path d="M157.399 121.647C147.916 141.893 127.361 155.957 103.585 155.957C102.413 155.957 101.246 155.917 100.089 155.852C99.7379 156.92 99.2119 157.963 98.5356 158.966C100.204 159.101 101.887 159.171 103.585 159.171C129.976 159.171 152.59 142.741 161.792 119.571L157.404 121.647H157.399Z" fill="#00204F"/>
<path d="M58.9594 135.706C49.7617 125.232 44.1709 111.509 44.1709 96.4975C44.1709 63.7116 70.8222 37.0377 103.58 37.0377C106.857 37.0377 110.068 37.3084 113.199 37.8198C114.782 36.9625 116.425 36.2003 118.108 35.5285C113.444 34.4154 108.58 33.8238 103.58 33.8238C69.0538 33.8238 40.9597 61.9367 40.9597 96.4975C40.9597 112.091 46.6807 126.37 56.1289 137.351C57.1008 136.854 58.0426 136.308 58.9594 135.706Z" fill="#00204F"/>
<path d="M22.0533 120.85L19.8741 112.026L22.5493 111.364L23.9169 116.909L27.2133 116.097L25.9308 110.912L28.5859 110.256L29.8634 115.44L35.6595 114.006L36.4661 117.28L22.0433 120.845L22.0533 120.85Z" fill="white"/>
<path d="M26.061 86.2792C30.9304 86.4446 33.7809 89.4981 33.6356 93.8401C33.4853 98.2473 30.0738 100.714 25.8456 100.574C21.3971 100.423 18.1658 97.4652 18.3161 93.078C18.4714 88.5154 21.9682 86.1388 26.0661 86.2792H26.061ZM25.8957 97.0239C28.8013 97.1242 30.9004 95.8256 30.9755 93.5744C31.0506 91.3031 28.9366 89.9293 26.051 89.834C23.3859 89.7438 21.0514 90.9421 20.9712 93.2585C20.8961 95.5298 23.0102 96.9237 25.8957 97.0239Z" fill="white"/>
<path d="M32.6387 63.3456C37.2275 64.9751 39.026 68.7506 37.5732 72.8469C36.1004 77.0034 32.0977 78.3221 28.11 76.9082C23.9119 75.4191 21.7277 71.6185 23.1955 67.4821C24.7235 63.1801 28.7763 61.9718 32.6387 63.3456ZM29.2321 73.5388C31.9774 74.5115 34.362 73.9099 35.1135 71.789C35.8749 69.6481 34.2718 67.6977 31.5516 66.73C29.0368 65.8375 26.4518 66.2737 25.6753 68.4598C24.9138 70.6007 26.5069 72.5712 29.2321 73.5388Z" fill="white"/>
<path d="M35.3038 50.134L33.0144 53.408L30.705 51.7886L37.2526 42.4276L39.562 44.0471L37.2376 47.3713L47.0965 54.2805L45.1628 57.0481L35.3038 50.139V50.134Z" fill="white"/>
<path d="M45.273 34.0745C45.8391 33.3725 47.1216 32.1291 48.4091 31.0511C49.9821 29.7374 51.0742 29.0806 52.3116 28.8801C53.4588 28.6394 54.6861 28.9402 55.5478 29.9731C56.3944 30.9909 56.5948 32.4349 55.7031 33.9792L55.7332 34.0143C57.3312 33.2823 59.1147 33.4577 60.347 34.9318C61.2087 35.9647 61.4141 37.173 61.1837 38.3413C60.9031 39.695 59.826 41.2243 57.5617 43.1195C56.2942 44.1775 55.2723 44.8844 54.626 45.2805L45.278 34.0694L45.273 34.0745ZM51.47 36.3107L52.3166 35.6037C53.6692 34.4756 53.9347 33.3073 53.2283 32.46C52.507 31.5976 51.4649 31.6878 50.2977 32.6656C49.7366 33.1318 49.4461 33.4327 49.2557 33.6533L51.475 36.3107H51.47ZM55.6931 41.3747C55.9736 41.1942 56.2792 40.9435 56.7201 40.5725C57.8873 39.5948 58.5536 38.2962 57.5517 37.0928C56.5898 35.9396 55.1771 36.3457 53.8896 37.4187L53.0079 38.1558L55.6931 41.3747Z" fill="white"/>
<path d="M71.5887 29.1308L72.1648 33.0466L68.9787 34.4605L67.1151 19.0227L71.1478 17.2378L81.3775 28.9653L78.0712 30.4293L75.4812 27.406L71.5887 29.1308ZM74.0184 25.3051L71.8943 22.7982C71.2981 22.1013 70.6068 21.1988 70.0507 20.4818L70.0106 20.5018C70.1659 21.3993 70.4214 22.5174 70.5467 23.3999L71.0176 26.6439L74.0184 25.3102V25.3051Z" fill="white"/>
<path d="M86.7629 12.3793L90.0943 11.8679L91.9278 23.7709L97.7641 22.8734L98.1949 25.6661L89.0222 27.0801L86.7629 12.3843V12.3793Z" fill="white"/>
<path d="M107.493 10.7247L110.849 11.0306L109.752 23.0238L115.633 23.5653L115.378 26.3781L106.135 25.5308L107.493 10.7247Z" fill="white"/>
<path d="M97.188 167.033L100.559 167.153L100.139 179.192L106.04 179.397L105.94 182.22L96.667 181.894L97.188 167.038V167.033Z" fill="white"/>
<path d="M124.365 173.25L119.015 174.358L119.731 177.813L125.708 176.574L126.269 179.277L116.986 181.202L113.97 166.642L122.948 164.782L123.509 167.484L117.833 168.663L118.459 171.686L123.814 170.578L124.37 173.255L124.365 173.25Z" fill="white"/>
<path d="M138.653 170.573L139.424 174.459L136.313 176.028L133.678 160.705L137.616 158.72L148.417 169.921L145.19 171.551L142.45 168.658L138.653 170.573ZM140.887 166.627L138.643 164.225C138.012 163.558 137.275 162.691 136.684 162.004L136.644 162.024C136.844 162.912 137.155 164.015 137.325 164.892L137.956 168.106L140.887 166.627Z" fill="white"/>
<path d="M166.041 154.759C165.514 155.717 164.392 157.401 162.945 158.725C160.941 160.555 159.032 161.372 157.133 161.317C155.26 161.297 153.401 160.365 151.943 158.74C148.632 155.075 149.378 150.567 152.975 147.278C154.393 145.985 155.736 145.263 156.512 145.032L157.805 147.494C156.963 147.785 156.021 148.256 154.819 149.359C152.75 151.249 152.259 153.851 154.428 156.228C156.492 158.494 159.127 158.534 161.166 156.674C161.737 156.153 162.133 155.672 162.238 155.396L160.144 153.099L158.451 154.649L156.682 152.708L160.77 148.973L166.046 154.754L166.041 154.759Z" fill="white"/>
<path d="M163.245 135.235L170.564 139.662C172.753 140.986 174.367 140.83 175.258 139.356C176.17 137.847 175.614 136.378 173.37 135.019L166.051 130.592L167.784 127.724L174.913 132.036C178.835 134.408 179.506 137.521 177.498 140.845C175.559 144.054 172.643 144.872 168.59 142.415L161.497 138.123L163.24 135.235H163.245Z" fill="white"/>
<path d="M181.58 113.836L180.078 119.095L183.469 120.063L185.147 114.187L187.797 114.944L185.197 124.064L170.915 119.983L173.43 111.158L176.08 111.915L174.487 117.496L177.452 118.343L178.955 113.083L181.585 113.836H181.58Z" fill="white"/>
</g>
<defs>
<clipPath id="clip0_1_335">
<rect width="200" height="193" fill="white"/>
</clipPath>
</defs>
</svg>
